<?xml version="1.0" standalone="no"?>
<!DOCTYPE svg PUBLIC "-//W3C//DTD SVG 20010904//EN"
 "http://www.w3.org/TR/2001/REC-SVG-20010904/DTD/svg10.dtd">
<svg version="1.0" xmlns="http://www.w3.org/2000/svg"
 width="500.000000pt" height="500.000000pt" viewBox="0 0 500.000000 500.000000"
 preserveAspectRatio="xMidYMid meet">
<metadata>
Created by potrace 1.14, written by Peter Selinger 2001-2017
</metadata>
<g transform="translate(0.000000,500.000000) scale(0.100000,-0.100000)"
fill="#000000" stroke="none">
<path d="M0 2500 l0 -2500 2500 0 2500 0 0 2500 0 2500 -2500 0 -2500 0 0
-2500z m2353 1583 c26 -12 69 -43 96 -68 l50 -46 41 40 c23 22 67 53 98 68
l57 28 756 3 c870 3 798 11 807 -91 l4 -57 60 0 c96 0 159 -36 201 -115 l22
-40 3 -1285 c2 -937 0 -1296 -9 -1326 -14 -54 -60 -109 -112 -137 l-42 -22
-776 -5 -775 -5 -40 -28 c-21 -15 -54 -39 -73 -52 -50 -37 -124 -55 -221 -55
-95 0 -170 18 -218 52 -18 13 -51 37 -74 53 l-41 30 -776 5 c-771 5 -776 5
-816 27 -51 27 -90 68 -109 115 -14 33 -16 184 -16 1328 0 1398 -3 1319 55
1388 42 50 93 72 170 72 l65 0 0 50 c0 41 5 56 25 76 l25 24 757 -2 758 -3 48
-22z"/>
<path d="M890 2721 l0 -1240 698 -3 697 -3 69 -32 c37 -18 70 -33 72 -33 2 0
4 63 4 139 l0 140 -442 3 c-441 3 -443 3 -503 27 -84 34 -174 124 -204 206
-31 82 -31 188 0 270 31 82 121 173 204 205 53 20 83 24 250 29 187 6 191 7
243 36 64 35 97 71 130 144 21 45 24 64 20 125 -8 115 -59 194 -162 249 -40
22 -50 22 -446 25 -223 1 -415 4 -427 7 -33 8 -53 33 -53 68 1 77 2 77 452 77
317 0 405 -3 451 -15 138 -36 234 -114 295 -243 35 -74 37 -82 37 -182 0 -100
-2 -108 -37 -182 -49 -102 -114 -168 -216 -216 l-77 -37 -195 -5 c-218 -6
-230 -10 -292 -78 -79 -87 -71 -222 16 -299 25 -22 62 -45 84 -51 27 -8 165
-12 456 -12 l416 0 0 953 c0 614 -4 968 -11 997 -13 56 -48 108 -96 140 l-37
25 -698 3 -698 2 0 -1239z"/>
<path d="M2691 3938 c-54 -26 -96 -84 -110 -149 -7 -34 -11 -362 -11 -1000 l0
-950 463 3 c449 3 463 4 509 25 63 29 134 96 166 158 24 44 27 62 27 145 0 83
-3 101 -27 145 -32 62 -103 129 -166 158 -40 18 -70 22 -192 25 -130 3 -147 6
-167 25 -28 25 -30 67 -4 98 18 22 28 24 124 27 202 7 324 -30 433 -131 203
-188 204 -506 2 -693 -64 -58 -91 -75 -177 -107 -53 -20 -78 -21 -523 -25
l-468 -3 0 -140 c0 -76 2 -139 4 -139 2 0 35 15 72 33 l69 32 698 3 697 3 0
1239 0 1240 -687 0 c-685 0 -688 0 -732 -22z m724 -203 c127 -34 230 -120 288
-242 57 -122 49 -301 -19 -440 -60 -125 -193 -257 -324 -323 l-58 -29 -59 30
c-131 68 -257 196 -318 324 -42 89 -57 154 -57 252 -1 291 267 501 547 428z"/>
<path d="M3227 3586 c-103 -28 -185 -117 -208 -223 -31 -154 63 -346 226 -458
l56 -39 37 19 c63 33 174 153 209 225 42 86 59 182 44 252 -23 107 -109 197
-213 225 -63 16 -88 16 -151 -1z m143 -145 c136 -72 87 -276 -66 -273 -152 2
-199 206 -64 274 45 23 87 23 130 -1z"/>
<path d="M650 3813 c-8 -3 -23 -12 -32 -21 -17 -14 -18 -88 -18 -1292 l0
-1277 21 -19 c20 -18 52 -19 798 -24 l776 -5 45 -24 c25 -13 63 -38 85 -56 53
-42 78 -55 111 -55 25 0 26 1 11 18 -9 9 -19 41 -23 71 -9 69 -55 138 -114
171 l-45 25 -742 3 -742 2 -20 27 c-21 26 -21 30 -21 1244 l0 1219 -37 -1
c-21 0 -45 -3 -53 -6z"/>
<path d="M4260 2603 c0 -1216 0 -1220 -21 -1246 l-20 -27 -742 -2 c-738 -3
-742 -3 -782 -25 -71 -38 -107 -92 -120 -178 -4 -27 -14 -58 -22 -67 -15 -17
-14 -18 11 -18 33 0 58 13 111 55 22 18 60 43 85 56 l45 24 778 5 779 5 19 24
c18 23 19 58 19 1291 0 1444 9 1308 -88 1318 l-52 5 0 -1220z"/>
</g>
</svg>
