<?xml version="1.0" standalone="no"?>
<!DOCTYPE svg PUBLIC "-//W3C//DTD SVG 20010904//EN"
 "http://www.w3.org/TR/2001/REC-SVG-20010904/DTD/svg10.dtd">
<svg version="1.0" xmlns="http://www.w3.org/2000/svg"
 width="2000.000000pt" height="2000.000000pt" viewBox="0 0 2000.000000 2000.000000"
 preserveAspectRatio="xMidYMid meet">
<metadata>
Created by potrace 1.14, written by Peter Selinger 2001-2017
</metadata>
<g transform="translate(0.000000,2000.000000) scale(0.100000,-0.100000)"
fill="#000000" stroke="none">
<path d="M1695 17836 c-122 -39 -201 -113 -243 -226 -17 -48 -20 -82 -21 -260
-1 -112 -4 -207 -7 -209 -2 -3 -107 -6 -232 -7 -208 -2 -246 -4 -322 -19 -14
-3 -36 -7 -49 -10 -98 -18 -257 -92 -371 -173 -73 -51 -235 -211 -245 -242 -3
-11 -10 -20 -14 -20 -5 0 -34 -51 -64 -112 -54 -107 -95 -229 -113 -328 -4
-25 -8 -2819 -9 -6210 -1 -4918 1 -6182 11 -6251 33 -228 142 -441 306 -602
171 -168 392 -276 618 -303 36 -4 1665 -8 3620 -9 1955 -1 3584 -5 3619 -9 69
-9 253 -66 280 -88 9 -8 29 -20 46 -28 42 -22 116 -79 184 -142 213 -202 456
-333 756 -407 44 -11 105 -24 135 -28 68 -10 733 -11 815 -1 246 28 560 150
730 283 22 18 48 36 57 41 9 5 54 43 100 85 136 124 220 186 278 204 14 4 27
11 30 14 8 9 97 39 175 57 65 16 336 17 3670 19 3369 1 3606 3 3689 19 116 23
233 66 330 122 43 25 84 50 90 55 97 77 141 117 188 170 131 150 215 332 251
540 11 63 13 1176 11 6260 -1 3401 -4 6193 -6 6204 -3 11 -8 36 -12 55 -25
117 -105 302 -169 395 -33 47 -38 52 -117 135 -140 146 -327 253 -515 295 -92
21 -170 27 -367 29 -125 1 -230 4 -232 7 -3 3 -6 94 -6 203 -2 211 -10 265
-54 335 -32 50 -84 99 -130 123 -99 51 126 48 -3621 47 -3340 -1 -3495 -2
-3595 -19 -194 -34 -343 -78 -478 -141 -46 -22 -86 -39 -88 -39 -21 0 -278
-177 -349 -240 -81 -72 -202 -200 -237 -250 -17 -25 -18 -25 -33 -5 -145 186
-320 336 -540 465 -49 29 -90 51 -90 50 0 -2 -18 6 -40 17 -95 49 -351 125
-465 139 -25 3 -63 9 -85 14 -24 6 -1476 9 -3535 9 -2797 0 -3503 -3 -3535
-13z m7015 -710 c117 -16 217 -47 340 -104 122 -56 279 -186 372 -308 101
-132 165 -275 198 -444 19 -93 19 -211 17 -4790 l-2 -4695 -2010 0 c-1105 1
-2032 4 -2060 8 -230 34 -436 137 -595 297 -109 109 -154 169 -214 288 -103
203 -137 489 -85 707 5 22 12 49 14 59 2 11 17 51 31 90 139 368 482 634 879
681 33 4 353 9 710 10 358 1 670 5 695 9 157 21 207 30 312 56 64 16 140 39
170 51 29 12 58 22 63 24 6 1 23 7 38 13 16 7 30 12 33 12 14 0 250 124 314
165 248 159 471 375 629 609 173 256 310 607 346 887 3 24 8 60 11 79 10 65
13 375 4 435 -5 33 -14 96 -21 140 -21 141 -48 255 -79 330 -4 11 -16 43 -25
70 -24 67 -39 103 -93 213 -209 431 -562 777 -1007 987 -97 46 -332 129 -413
145 -93 19 -158 31 -202 36 -25 3 -56 8 -70 11 -14 4 -883 8 -1931 9 -2016 3
-1941 4 -2028 -41 -72 -37 -116 -84 -154 -164 -90 -190 5 -413 206 -486 50
-19 108 -19 1937 -20 1037 -1 1894 -4 1905 -8 11 -3 40 -9 65 -12 153 -21 361
-96 505 -183 88 -52 191 -132 265 -204 72 -69 190 -211 190 -226 0 -6 3 -12 8
-14 10 -4 47 -69 92 -163 67 -138 115 -305 135 -465 8 -63 9 -260 1 -305 -3
-16 -8 -50 -11 -75 -9 -64 -41 -184 -69 -260 -195 -529 -650 -878 -1221 -936
-33 -3 -355 -7 -715 -9 -360 -1 -665 -5 -677 -8 -11 -3 -43 -9 -70 -13 -67 -9
-68 -10 -163 -34 -412 -106 -749 -331 -1001 -670 -173 -232 -286 -510 -329
-810 -16 -105 -20 -321 -9 -415 5 -38 11 -92 15 -119 3 -26 16 -92 30 -145 85
-328 234 -593 458 -817 77 -77 124 -118 238 -209 21 -17 201 -123 208 -123 3
0 30 -13 61 -30 53 -29 166 -73 234 -92 161 -45 264 -66 375 -76 25 -2 953 -5
2063 -5 l2017 -1 0 -710 c0 -390 -3 -708 -7 -706 -5 2 -47 29 -94 60 -228 149
-517 250 -799 278 -47 4 -1547 8 -3334 9 -1787 1 -3251 3 -3253 5 -3 2 -5
2733 -6 6068 l-2 6063 3255 -1 c1790 0 3280 -4 3310 -8z m9141 -1 c2 -55 -1
-12118 -4 -12121 -2 -2 -1466 -4 -3253 -5 -1851 0 -3288 -5 -3339 -10 -116
-12 -307 -53 -415 -91 -120 -42 -291 -126 -389 -192 -46 -31 -86 -56 -88 -56
-1 0 -3 319 -3 709 l0 709 2133 1 c1172 1 2146 3 2162 5 17 2 59 7 95 11 36 4
67 8 70 10 3 2 24 6 46 9 22 4 51 9 64 12 14 3 36 7 50 10 243 50 555 186 785
343 44 30 82 57 85 60 3 4 40 33 83 66 99 75 290 272 377 390 87 117 184 275
243 397 44 91 95 214 102 248 2 8 10 33 18 55 14 35 31 93 43 147 2 10 6 28 9
41 6 22 29 153 39 217 8 50 20 244 19 315 -1 144 -21 320 -58 506 -25 129
-112 364 -196 530 -49 97 -187 322 -208 339 -4 3 -22 25 -41 50 -83 108 -241
269 -350 355 -41 33 -77 62 -80 65 -15 17 -216 144 -283 179 -43 23 -86 46
-95 51 -77 44 -378 147 -507 174 -108 22 -126 26 -175 32 -25 3 -56 8 -70 11
-14 4 -293 8 -620 10 l-595 3 -67 -29 c-179 -76 -265 -266 -203 -446 38 -111
126 -192 245 -226 33 -9 189 -13 585 -15 297 -2 549 -5 560 -7 11 -2 47 -7 80
-11 130 -17 306 -73 455 -143 67 -31 177 -94 205 -116 6 -4 40 -30 77 -58 98
-72 224 -200 306 -310 40 -53 72 -99 72 -103 0 -5 9 -21 20 -36 66 -93 165
-345 194 -495 9 -44 19 -93 22 -110 10 -48 12 -350 3 -408 -5 -28 -11 -68 -14
-87 -3 -19 -13 -62 -21 -95 -9 -33 -17 -67 -19 -75 -9 -39 -56 -163 -90 -235
-155 -332 -438 -614 -770 -767 -199 -92 -326 -126 -540 -147 -44 -4 -1017 -8
-2163 -8 l-2082 0 3 4731 c2 3756 5 4739 15 4771 7 22 15 49 17 59 10 42 39
123 59 166 166 345 486 579 846 616 36 3 66 7 67 8 1 0 1460 1 3242 1 2158 0
3241 -3 3242 -10z m-16426 -707 c3 -3 5 -2667 5 -5920 0 -4260 3 -5925 11
-5949 22 -68 43 -104 88 -152 52 -56 119 -93 193 -107 32 -6 1328 -10 3502
-11 2816 -1 3464 -3 3524 -14 343 -62 626 -274 782 -585 64 -128 97 -254 106
-405 10 -170 42 -255 124 -327 47 -42 109 -78 134 -78 8 0 17 -4 20 -8 7 -12
-198 -6 -273 8 -183 33 -311 102 -486 261 -39 36 -97 85 -130 110 -58 44 -219
149 -230 149 -3 0 -29 12 -58 26 -80 39 -223 89 -311 109 -199 44 -84 42
-3826 43 -2757 0 -3575 3 -3610 12 -128 34 -217 122 -260 255 -11 33 -13 1170
-13 6156 0 6505 -3 6172 45 6241 10 14 18 28 18 31 0 3 15 22 32 42 30 33 128
102 128 90 0 -3 9 -1 20 5 12 6 42 14 68 17 26 3 48 6 49 7 5 4 344 -2 348 -6z
m17555 -2 c132 -18 244 -119 290 -261 18 -55 19 -12257 1 -12322 -13 -47 -77
-147 -115 -180 -34 -30 -91 -58 -146 -73 -34 -9 -861 -12 -3616 -12 -1964 0
-3593 -4 -3620 -8 -27 -4 -71 -11 -99 -14 -74 -10 -223 -51 -312 -87 -148 -59
-241 -110 -373 -207 -77 -57 -86 -65 -180 -152 -139 -130 -311 -213 -485 -236
-85 -11 -263 -12 -235 -2 150 57 230 142 258 273 6 28 13 93 16 146 27 459
355 851 811 968 22 5 54 14 70 18 28 7 684 9 5300 16 l1750 2 60 28 c104 48
174 131 204 242 8 29 11 1691 11 5952 l0 5912 33 3 c53 5 329 1 377 -6z"/>
<path d="M13759 16086 c-2 -2 -35 -7 -72 -11 -37 -3 -78 -8 -90 -11 -12 -2
-35 -7 -52 -9 -16 -3 -38 -8 -48 -11 -10 -3 -30 -7 -45 -9 -88 -12 -347 -103
-477 -167 -57 -29 -224 -127 -235 -138 -3 -3 -45 -34 -93 -69 -123 -88 -276
-233 -369 -348 -18 -23 -41 -52 -52 -65 -134 -167 -313 -523 -361 -718 -18
-73 -57 -264 -61 -300 -23 -203 -22 -457 1 -615 2 -16 9 -66 16 -110 6 -44 13
-89 15 -100 3 -11 9 -42 14 -70 40 -202 131 -457 240 -675 200 -400 540 -818
900 -1105 41 -33 77 -63 80 -66 12 -14 206 -152 314 -223 131 -86 264 -158
433 -236 l113 -51 132 65 c73 36 175 90 227 121 51 30 95 55 97 55 10 0 334
225 381 265 7 5 18 15 25 20 216 167 475 424 641 638 12 15 27 33 33 40 27 31
167 242 218 329 134 229 274 580 310 778 2 14 11 57 20 95 37 167 51 320 51
545 0 188 -7 294 -24 372 -6 24 -12 55 -15 70 -24 136 -96 353 -158 480 -22
46 -44 92 -49 103 -9 21 -18 35 -61 102 -16 23 -28 44 -28 48 0 3 -5 11 -10
18 -6 7 -38 50 -72 97 -35 47 -78 103 -97 125 -44 50 -264 265 -272 265 -3 0
-17 9 -30 21 -13 12 -51 40 -84 62 -33 22 -61 44 -63 49 -2 4 -8 8 -12 8 -5 0
-28 13 -52 29 -59 39 -303 161 -323 161 -4 0 -21 6 -38 14 -28 12 -90 34 -122
43 -118 31 -261 63 -310 69 -22 3 -51 8 -65 11 -29 6 -415 14 -421 9z m376
-751 c90 -14 135 -25 250 -62 127 -41 325 -145 388 -203 11 -11 24 -20 29 -20
12 0 228 -217 264 -265 113 -152 202 -340 250 -530 4 -16 8 -32 9 -35 0 -3 4
-26 8 -51 4 -25 10 -59 13 -75 8 -39 8 -295 0 -364 -25 -234 -98 -491 -198
-700 -47 -100 -154 -289 -168 -300 -3 -3 -24 -32 -46 -65 -39 -60 -51 -76 -89
-119 -11 -13 -40 -47 -65 -77 -110 -133 -317 -325 -479 -446 -53 -40 -100 -76
-106 -80 -19 -15 -90 -61 -179 -116 l-89 -55 -91 57 c-50 32 -102 64 -115 72
-14 8 -32 19 -40 26 -9 6 -63 47 -121 90 -58 43 -123 93 -144 113 -158 141
-293 276 -366 367 -8 10 -33 41 -56 68 -116 140 -259 386 -337 575 -29 71 -69
182 -72 200 -1 3 -11 46 -23 95 -11 50 -23 104 -26 120 -3 17 -11 62 -17 100
-14 81 -18 394 -5 475 46 306 191 591 410 804 75 73 245 206 264 206 5 0 12 4
14 8 2 5 51 32 109 60 111 54 278 106 408 127 97 15 313 16 416 0z"/>
<path d="M13820 14660 c-19 -4 -50 -10 -67 -14 -42 -8 -118 -38 -169 -66 -186
-104 -329 -308 -361 -513 -19 -120 5 -300 54 -407 74 -158 238 -315 385 -367
239 -85 464 -61 668 71 44 29 180 163 180 177 0 4 6 14 14 21 36 37 102 211
111 299 10 81 10 88 2 164 -21 214 -141 410 -322 526 -86 55 -102 62 -190 89
-74 23 -238 33 -305 20z"/>
</g>
</svg>
